<svg xmlns="http://www.w3.org/2000/svg" width="1812pt" height="1428pt" version="1" viewBox="0 0 1812.000000 1428.000000"><path d="M452 113.1c0 .4 8 9.1 17.7 19.1 68.3 70.5 86.5 89.1 116.2 119 28.9 29.1 34.1 34 38.1 35.3 2.5.8 14.9 3.7 27.5 6.5 21.5 4.7 44.6 10.6 57.7 14.8l5.6 1.8h-32.6c-18 0-33.7.5-34.9 1-2 .8-1.1 2.3 14.8 23.9 15.8 21.3 17.3 23.1 20.7 23.7 2 .4 10.9 1.7 19.7 2.8 16.7 2.2 41.5 6.7 42.7 7.9.4.3-12 1.9-27.5 3.5-15.5 1.5-28.4 3-28.6 3.2-.2.2 1.7 5.9 4.4 12.6 8.7 22.5 18.5 54.2 18.5 59.9 0 3.1 2.1 3.2 13.1.4 18.9-4.8 59.4-10.8 87.4-12.9l7-.6-15.5 5.1c-56 18.2-68.1 22.3-82 27.6-44.2 17.2-89.4 40.3-133 68-67.7 43.2-112.3 83.1-152 135.8-31.8 42.3-64.7 102.8-78.1 143.7-3 9.2-6.4 24.6-5.7 25.4.8.8 18.7-4.3 35.3-10 52.5-17.9 121.2-48.1 161.5-71.1 38.9-22.1 75.7-49.9 109.2-82.4l15.1-14.6-11.1 15c-31 42.1-64.9 73.5-108.3 100.5-38.2 23.8-82.8 45.4-162.9 79-86.8 36.4-115.7 49.2-185.5 82.3-63.5 30-84.9 39.3-152.5 66.2C.9 1026.6.5 1026.8.5 1030c0 3.8 6.2 5.2 23 5.3 29.2 0 96.1-13.2 147.5-29.3 24.2-7.6 50.6-17.3 92.9-34.2C387.3 922.5 436.7 907.7 544 888c83.8-15.4 143-28.7 171.3-38.6 13.6-4.8 40.1-17.8 51.2-25.1 14.9-9.8 25.7-21 33.3-34.3 1.8-3 3.2-5.1 3.2-4.5 0 3.3-5.4 22.2-8.3 29.1-7.1 17-20.7 33.9-34.4 43.1-3.5 2.3-6.8 4.3-7.5 4.6-2.3.8 4.3 6.8 10.8 9.8 21.9 10.1 66.1 13.8 130.4 10.9 61.9-2.8 172.6-11.7 211.5-17.1 44-6 74.5-16.9 74.5-26.6 0-3.2-6.3-7.1-18.6-11.2-5.5-1.9-10.3-3.8-10.9-4.4-1.5-1.4 10.3-.1 29.5 3.3 30.1 5.3 40.3 5.9 67.5 4 65.7-4.7 102.6-16.3 125.9-39.6 6.5-6.6 10.2-13 11.8-21 1-5.1 1.4-5.7 5.7-8.1 16-9 26.2-18.6 37.1-35 3.9-5.7 7-10.8 7-11.3s-3.3 1.6-7.2 4.6c-13.5 10.1-32.8 18.3-51 21.7l-7.8 1.5 5.2-5.7c9.8-10.6 25.8-34.4 25.8-38.1 0-.7-2.1.4-4.7 2.4-22.2 16.9-47.7 30.3-65.3 34.1l-3.4.8 4.2-4.9c13.6-15.7 28.2-35.7 27-37-.3-.2-2.6 1-5.2 2.6-9.6 6.1-21.4 12.5-31.8 17.1-10.5 4.7-29 11-35.6 12.3-3.1.5-3.2.5-2.1-1.7 5.7-10.7 19.2-25.9 28.8-32.2 3.3-2.2 6.1-4.3 6.1-4.7 0-1-11.4 1.8-21.4 5.3-12 4.1-19 7.8-38.9 20.3-18.6 11.7-18.8 11.7-11.5-.8 4.6-7.8 16.6-20.8 24.2-26.3 2.8-2 5.3-3.8 5.5-4 .2-.2.2-.5-.1-.8-1.1-1.2-20.5 4.7-29.4 8.9-11.2 5.3-17.4 9-34.4 20.1-6.9 4.6-13.6 8.6-14.9 9-2.2.7-2.3.5-1.7-2.1 2.2-8.7 13.7-21.3 30.2-32.9 5.7-4.1 9.2-7.1 8.2-7.3-6.2-1.2-35.3 8.4-57.3 18.9-26.2 12.5-50.9 31.8-73 56.9l-4.9 5.5 2.8-5c15.7-27.7 32.1-47 56.6-66.5 12-9.5 43.8-31.2 62-42.1 13.5-8 48-24.9 68.2-33.3 16.1-6.7 42.7-16 43.5-15.2 1.7 1.6-14.7 26.5-22.9 34.8-6.3 6.4-18.2 16.9-22.8 20.1-8.7 6.1 15.1-1.7 33.2-10.9 17.6-9 26.4-15.1 37.5-25.9 5.1-5 9.3-8.6 9.3-7.9 0 3-4.9 14.3-8.4 19.6-5.4 8.2-20.8 22.3-31.7 29.2l-9.4 5.8 8.3-.6c14.1-1 36.7-9.8 48.9-19 3.4-2.6 10.4-9.2 15.4-14.7 5.1-5.4 9.4-9.7 9.6-9.5.8.7-4.4 12.3-8.2 18.2-5.7 8.9-16.6 19.6-27.3 26.6l-9.6 6.3 4.2.3c7.4.6 22.1-2.6 31.8-6.9 14.4-6.3 34.3-19.1 44.2-28.3 1.7-1.6 3.2-2.7 3.2-2.3 0 .4-1.3 3.7-3 7.3-7.7 17.1-22.2 31.1-40.8 39.6-6.7 3.1-6.7 3.1-3.7 4 3.7 1.1 16.5-.5 26.6-3.3 14.3-3.9 33.6-14.3 51.8-28.1 3.5-2.6 6.8-4.8 7.3-4.8 1.1 0-5.5 10.5-10.9 17.4-4.6 5.9-20.7 19.5-30 25.2l-5.8 3.6 7.8-.7c15.1-1.2 30.8-6.5 55.7-19 37.1-18.4 63.5-38.2 103.4-77.5 27.9-27.5 53-56.8 57.2-66.7 2.2-5.2 1.7-10.1-1.6-15.5-4.4-7.1-6.4-15.7-5.6-24.2.4-3.9.8-7.2 1-7.4.3-.2 4.6 2.4 9.7 5.8 8.9 6 9.3 6.2 12.9 5.1 7.5-2.2 15.7-13.8 16.7-23.5 1.1-10.5-4.9-17.9-23.2-28.8-18.1-10.7-33.2-17.5-56.5-25.2-54.1-18-121.1-32.6-184-40-69.1-8.2-173.7-12.4-238-9.7-41.1 1.8-151 9.2-175 11.9l-6.5.7-19-13.6c-57.6-41.1-105-71.8-142.1-91.7-52.9-28.4-197.3-92.8-273.4-121.9-17.8-6.8-87.9-30.7-107.7-36.6-4.6-1.4-8.3-2.1-8.3-1.6zm502.5 279.7l3 1.6-3.5.7c-1.9.5-12.3 2.4-23 4.4-10.7 2-25.7 5.4-33.4 7.6-7.6 2.2-14 3.8-14.2 3.6-.5-.5 16.5-7.7 25.6-10.9 3-1.1 12.3-3.7 20.5-5.9 15.7-4.1 19.1-4.2 25-1.1zm633.6 59.2c5.5 1.1 12.4 3 15.5 4.1l5.5 2.1-14.1 8.4c-7.7 4.6-14.5 8.4-15 8.4s-4.7-2.6-9.2-5.7c-4.6-3.1-13-8.3-18.7-11.4-11.4-6.3-11.3-5.7-1.1-7.2 8.1-1.3 27.9-.6 37.1 1.3zm-283.5 24.4c-7.5 4.7-16.6 10.8-20.2 13.6-8.8 6.9-12.4 8.3-21.1 8.4-6.9 0-7.7-.2-20-6.4l-12.8-6.5-21.4.2c-11.8.1-24.1.4-27.5.7-5.4.4-4.9.2 5.4-2.4 40.2-10.3 78.4-15.4 118.4-15.9l12.9-.1-13.7 8.4zM905.8 595c-1.8 9.7-2.2 15.5-2.2 36.5-.1 21.9.2 26.6 2.3 37.9 6.5 36.5 18.9 61.7 45.1 91.7l5.5 6.3-5-2.8c-17.3-9.9-38.7-29.3-48.2-43.6-20.6-30.9-23.3-64.2-8.8-107.7 3.2-9.7 12.4-30.7 13.1-30 .1.1-.7 5.4-1.8 11.7zm43.6 31.5c3.5 20.9 10.9 46.8 18.2 63.8 5.3 12.1 16 30.6 23.6 40.8 3.7 4.9 6.5 8.9 6.2 8.9-.3 0-2.8-1.2-5.7-2.6-12-6.1-27-19.6-35.5-32.1-19.5-28.8-24.2-70.6-12-108.7l2.3-7.1.6 13.5c.4 7.4 1.4 18 2.3 23.5zm-95-11.5c-2.1 13.7-2.9 40.3-1.5 54.5 4.5 46.6 20.6 82.2 51 113.3l6.2 6.3-4.8-2.5c-8.2-4.1-22.4-14-31-21.4-13.9-12.2-27.1-30.5-32.7-45.3-8.6-23-8.1-53.5 1.6-83.9 3.1-9.8 11.8-31.4 12.4-30.8.2.2-.4 4.6-1.2 9.8zm310.6 30.4c0 .2-8 6-17.7 12.9-24.6 17.3-32 23.1-45.8 36l-12 11.2 6.5-8.4c21.2-27.7 51.8-51.7 66.3-52 1.5-.1 2.7.1 2.7.3zm-422.8 42.7c9.3 4.8 21.8 20.9 30.2 39.2 2.4 5.1 4.6 10.1 5 11.2.6 1.8.5 1.8-.7.5-7.2-7.4-39.7-50.4-39.7-52.4 0-1 .9-.7 5.2 1.5zM1427.9 753.6c-14.8 11.3-22.4 20-30 34.4-4.5 8.5-14.3 18.1-27.3 26.8-21.9 14.7-37.4 19.7-77 25.2-8.3 1.1-15.2 2.2-15.4 2.4-.5.6 5.1 1.4 24.8 3.6 54.9 6.1 85 7.2 156 5.8 30-.6 67.3-.8 83-.5 51 1 133.6 8.3 211 18.7 33.5 4.4 53 6.3 56.6 5.4 6.5-1.7-.3-6.1-18.1-11.8-23.5-7.5-86.6-23.5-140.5-35.6-15.1-3.4-35.7-8.2-45.6-10.5-21.3-5.1-93.3-25.4-102.6-28.8-17-6.4-29.5-14.6-47.8-31.1-13.1-11.9-16.2-12.3-27.1-4zM704.5 877.2c-15.8 6.3-50.2 13.6-130 27.8-64.8 11.6-99.7 18.5-126.6 25.4-24 6.1-47 13.5-47.6 15.3-.6 1.8 19.2 21.3 32.2 31.6 15.9 12.8 36.2 26 50.1 32.8 35.9 17.5 89.1 27.3 138.2 25.5 53.3-1.9 107.1-12.1 205.7-39 68.7-18.7 81.8-21.6 107.5-24.2 19.7-2 69-2.3 88-.6 18.5 1.7 31 3.4 31 4.1 0 .3-3.1 2.6-6.7 5.1-10.7 7.2-38.5 28.2-48.6 36.7-5 4.3-16.6 14.6-25.7 22.9-28.2 25.7-46.7 40.5-65.2 52-12.2 7.6-40.7 22-53.3 26.9-5.5 2.1-10.4 4.3-11 4.7-2.5 2.2 25.7-.1 48.5-3.8 27.4-4.5 58.7-13.3 85.2-23.8 6.4-2.5 22.4-9.6 35.5-15.7 52.2-24.3 116.3-49.9 151.2-60.4 10.2-3 29.4-7.5 32.4-7.5.5 0-1.2 1.9-3.9 4.2-8.3 7.1-16.3 16.1-19.1 21.5-1.5 2.8-2.5 5.5-2.1 5.8.3.3 5.7-.1 11.9-.9 6.3-.9 18.6-2 27.4-2.6 29.8-1.9 45.7-1.4 153.4 4.5l44.5 2.4 6.5-6.3c7.8-7.6 20.1-18 20.6-17.5.1.2-.3 3.5-1.1 7.4-.7 3.8-1.3 9.4-1.4 12.2 0 6.2-2.1 5.3 20.5 8.3 14.6 1.9 16.1 2 17 .5.6-.8 4.7-7.3 9.2-14.3l8.2-12.7 1.5 3.7c2 4.6 6.6 22.3 6.6 25.2 0 1.1.4 2.6.8 3.2.4.7 12.4 3.3 26.7 5.9 53.8 9.6 124.9 24.3 165 34 13.6 3.3 73.2 19.5 88.9 24.2 4 1.2.2-1.7-8.2-6.3-4.8-2.6-16.3-9.1-25.7-14.4-36.7-21-76.5-41.9-111.1-58.3-25.3-12.1-102.1-46.7-132.6-59.8-57.6-24.6-108-40.3-170.5-52.8-108.3-21.8-169.6-25.9-271.3-18.6-11.3.9-36.7 2.9-56.5 4.5-64 5.3-76.4 6.1-111.5 7-19 .5-44.4 1.3-56.5 1.6-50.8 1.5-84.3-5.4-103.9-21.3-7.6-6.2-14.1-15.5-15.7-22.7-.7-3.1-1.7-5.6-2.3-5.5-.6.1-3.3 1-6.1 2.1zM29 1173.5c0 18.7-.3 50.5-.7 70.7l-.6 36.8H55l.2-49.1.3-49.1 29.9 40.6 30 40.6h8.3l28.9-39.3 28.9-39.3.3 47.8.2 47.8h31v-140.7l-9.7-.6c-18.7-1.3-12.4-6.5-48.9 40.8-17.5 22.8-32.2 41.5-32.6 41.5-.4 0-15.2-18.3-32.9-40.6s-32.7-40.7-33.3-40.9c-.6-.3-6.8-.5-13.9-.7l-12.7-.3v34zM282 1210.7v71.6l42.8-.6c23.5-.4 56.3-.7 73-.7H428v-10.3c0-5.6-.3-11.9-.6-14l-.7-3.7H315v-33h64v-24h-64v-31h111v-26H282v71.7zM503.2 1140.5c-9.8 2.7-12.8 5-16.2 12.7-1.9 4.5-2.1 7.1-2.7 55.5-.6 45.7-.5 51.4 1 55.7 2.4 7.1 5.9 11.1 12.3 14.1l5.6 2.7 62.2.5c55.3.5 62.7.4 67.6-1 7.5-2.2 12.3-6.5 16-14.1l3-6.4V1198h-86v25h52v30H518v-86h99.8l.6 3.1c.3 1.7.6 4.9.6 7 0 4.4.9 4.7 9 2.8 2.5-.6 8.8-1.6 14-2.3l9.5-1.1.3-8.1c.2-6.3-.2-9.3-1.8-13.5-2.7-7.2-4.8-9.4-11.7-12.7l-5.8-2.7-62-.2c-51.2-.2-62.9.1-67.3 1.2zM720 1210.5v71.5h139v-29H754v-114h-34v71.5zM947.2 1151.2c-21.3 37.7-72.2 128.9-72.2 129.3 0 .3 7.7.4 17.2.3l17.2-.3 7.5-14.7 7.6-14.8 44.3.3 44.4.2 8.5 15.2 8.5 15.3h18.5c15.4 0 18.4-.2 18.1-1.4-.2-.8-18.1-33-39.8-71.5l-39.5-70.1h-33.4l-6.9 12.2zm37.2 46.2c7.5 14.2 13.6 26 13.6 26.2 0 .2-13 .4-29 .4-15.9 0-29-.2-29-.5 0-1.7 29.4-53.5 30-52.8.4.4 6.8 12.4 14.4 26.7zM1111 1210.5v71.5l58.8-.6c54.3-.6 59.1-.8 64.6-2.6 13.5-4.4 25.4-12.4 34.1-22.8 4.5-5.4 10.6-18 13.1-27 2.5-9.1 2.5-33.9 0-42.5-2.7-9.4-8.1-19.7-13.1-25.3-5-5.5-16.9-12.9-26.9-16.7-14-5.3-17.3-5.5-76.1-5.5H1111v71.5zm115.5-40.8c7.4 4 12.5 8.3 16 13.6 8.1 12.2 8.7 36.1 1.3 50-4.9 9.1-15.5 15.3-31.8 18.6-3.1.6-18.9 1.2-35.9 1.3l-30.4.3.6-24.5c.4-13.5.7-33 .7-43.3v-18.8l37.8.3c36.4.3 37.8.4 41.7 2.5zM1362 1140c-10.7 1.7-14.6 4.4-18.9 13.3-1.9 4-2 6.6-2.3 56.2-.3 58-.5 56.6 6.5 64.2 3.1 3.3 5.4 4.7 10.4 6.3 6.2 1.9 9.3 2 69.4 2 56.6 0 63.6-.2 69.1-1.7 7.4-2.1 12.7-6.8 16.4-14.6l2.4-5.2V1211c0-29.3-.4-50.9-1-53-1.8-6.7-6.5-12.7-12.2-15.7l-5.3-2.8-64.5-.1c-35.5-.1-67 .2-70 .6zm119 70v43h-107v-86h107v43zM1582 1168.3c0 16.2-.3 48.3-.7 71.5l-.6 42.2h32.4l-.7-48.2c-.6-41.2-.5-48 .7-47.2.8.4 25.9 21.7 55.8 47.3 60.4 51.5 55.2 48 71.4 48.1h8.7v-143h-31.2l.4 48.4c.3 42.7.1 48.3-1.2 47.3-.8-.7-26.1-22.5-56.2-48.5l-54.7-47.2H1582v29.3zM1777.2 1144.1c-12.6 6.3-16.1 23.1-7 33.5 9.2 10.4 25.9 10.8 35.5.8 6.7-6.9 8-15.2 3.9-24-4-8.5-10.7-12.4-21.5-12.4-4.7 0-7.8.6-10.9 2.1zm20.5 2.8c4.8 2.2 9.8 8.5 10.7 13.6 2.4 12.7-11.2 24.7-24.4 21.5-8.5-2-16-10.7-16-18.5 0-6.3 4.8-13.3 11.5-16.8 4.2-2.2 13-2.1 18.2.2zM1779 1163.4v13.6h2.5c2.4 0 2.5-.3 2.5-5.5 0-4.9.2-5.5 2.1-5.5 3.7 0 5.9 2 7 6.5 1 4 1.4 4.5 4 4.5 1.6 0 2.9-.1 2.9-.3 0-1.1-3.4-10.4-4.1-11.1-.4-.5.1-2 1.1-3.4 2.5-3.1 2.5-6.3.1-9.3-1.7-2.1-3-2.4-10-2.7l-8.1-.4v13.6zM565.4 1330.1c-21.9 2.1-36.8 14.8-38.9 33-.7 6.1.8 15.5 3.2 20.3 4.2 8.1 13 14.6 24.3 18 9.1 2.8 38.6 1.8 40.5-1.4.2-.4-.1-2.3-.7-4.4-1-3.1-1.5-3.6-3.2-3.2-21.7 6-41.8.2-48.6-13.9-4.9-10.1-1.7-25.5 6.8-32.5 9.3-7.7 25.5-9.8 40.9-5.4 1.8.5 2.4 0 3.7-3.1.9-2.1 1.6-4.1 1.6-4.6 0-2.1-18.7-3.9-29.6-2.8zM997.9 1330.1c-18.9 1.6-32.5 10.3-38.5 24.4-2.4 5.6-2.4 18.5-.1 25.2 3.7 10.6 15.2 19.6 28.5 22.4 6.8 1.4 32.6.7 39-1.1l4.2-1.2V1365h-30v8h18v10c0 8.6-.2 10.2-1.7 10.8-1 .4-6.7.7-12.8.7-10 0-11.6-.3-17.3-2.9-11.1-5.1-16.5-13.6-16.4-25.8.2-14.4 10.6-24.3 28.4-27.1 6.6-1 17.1-.2 24.6 1.9 1.9.5 2.4.1 3.8-3.1 1.8-4.5 1.4-5-6.1-6.4-7.6-1.5-15.2-1.8-23.6-1zM1115.9 1330.1c-18.9 1.6-32.5 10.3-38.5 24.4-2.4 5.6-2.4 18.5-.1 25.2 3.7 10.6 15.2 19.6 28.5 22.4 6.8 1.4 32.6.7 39-1.1l4.2-1.2V1365h-30v8h18v10c0 8.6-.2 10.2-1.7 10.8-1 .4-6.7.7-12.8.7-10 0-11.6-.3-17.3-2.9-11.1-5.1-16.5-13.6-16.4-25.8.2-14.4 10.6-24.3 28.4-27.1 6.6-1 17.1-.2 24.6 1.9 1.9.5 2.4.1 3.8-3.1 1.8-4.5 1.4-5-6.1-6.4-7.6-1.5-15.2-1.8-23.6-1zM1271.3 1330.1c-13.5 1.3-25.8 9.2-31.3 20.4-2.2 4.4-2.5 6.3-2.5 16.5 0 10.6.2 11.9 2.7 16.7 3.7 7 9 12 16.8 15.7 6.3 3 6.9 3.1 20 3.1 11.7 0 14.3-.3 19.2-2.3 16-6.5 25.1-23.4 21.9-41.1-3.7-20.6-21-31.3-46.8-29zm15.1 9.3c16.3 4.9 23.7 24.5 15.6 41.2-7 14.4-28.4 19-41.6 8.9-13.7-10.4-14.2-33.8-1.1-45 7-6 17.5-8 27.1-5.1zM29.6 1333.2c-.8 4.7-5.6 61.6-5.6 65.5v3.3h11.7l1.6-23.2c1-12.8 1.7-26.2 1.8-29.8v-6.5l3.7 10c2.1 5.5 7.6 18.9 12.2 29.7l8.5 19.8h10l9.2-20.5c5.1-11.2 11-24.5 13-29.6l3.8-9.2.3 6.9c.1 3.8.9 16.6 1.7 28.4.8 11.8 1.5 22.1 1.5 22.7 0 .9 1.9 1.3 6 1.3h6v-3.8c0-2-1.1-17.6-2.5-34.7s-2.5-31.6-2.5-32.3c0-.8-2.2-1.2-7.8-1.2h-7.8l-8.4 18.2c-4.6 10.1-10.3 22.9-12.6 28.6l-4.2 10.3-1.7-4.8c-2.3-6.1-9.9-24.4-16.8-39.8l-5.3-12-7.6-.3-7.7-.3-.5 3.3zM394 1366v36h12v-32h34v-8h-34v-23h37v-9h-49v36zM600 1334.5v4.5h28v63h12v-63h27v-9h-67v4.5zM769.3 1330.7l-2.3.4v70.9h12v-31h4.4c14.8 0 21.4 4.7 24.1 17.1.4 1.9 1.6 5.8 2.7 8.6l1.9 5.3h7.1c5.5 0 6.8-.3 6-1.3-.5-.6-2.7-6.6-4.7-13.1-3.3-10.5-4.2-12.4-7.9-16l-4.3-4 5-3.1c6.3-3.8 8.7-8.1 8.7-15.6 0-7.6-2.7-11.5-10.5-15.4-5.9-3-6.3-3-23-3.2-9.3 0-18 .1-19.2.4zm32 8.7c7.5 3.2 10.5 10.4 6.7 16.4-2.9 4.7-9 7.1-19.9 7.9l-9.1.6V1338h9.5c5.9 0 10.8.5 12.8 1.4zM1171.3 1330.7l-2.3.4v70.9h12v-31h4.4c14.8 0 21.4 4.7 24.1 17.1.4 1.9 1.6 5.8 2.7 8.6l1.9 5.3h7.1c5.5 0 6.8-.3 6-1.3-.5-.6-2.7-6.6-4.7-13.1-3.3-10.5-4.2-12.4-7.9-16l-4.3-4 5-3.1c6.3-3.8 8.7-8.1 8.7-15.6 0-7.6-2.7-11.5-10.5-15.4-5.9-3-6.3-3-23-3.2-9.3 0-18 .1-19.2.4zm32 8.7c7.5 3.2 10.5 10.4 6.7 16.4-2.9 4.7-9 7.1-19.9 7.9l-9.1.6V1338h9.5c5.9 0 10.8.5 12.8 1.4zM1425.8 1330.7c-1.7.4-1.8 3-1.8 35.9v35.4h12v-27.8l11.8-.4c10.5-.3 12.4-.7 18.3-3.5 9.5-4.4 12.3-8.4 12.7-18.2.3-6.7.1-8-2-11.1-5.8-8.5-13.7-11-34.2-10.9-8.3.1-15.9.3-16.8.6zm35 10.6c10.3 6.7 6.7 20-6.3 23.6-2.2.6-7.3 1.1-11.2 1.1h-7.3v-28.2l10.4.4c9.2.3 10.7.6 14.4 3.1zM1600 1334.5v4.5h28v63h12v-63h27v-9h-67v4.5zM1681.3 1330.7l-2.3.4v71.9h17.3c19.6 0 27.9-1.4 37.4-6 14.6-7.2 22.1-24.4 17.9-41-3.1-12.5-11.7-20.4-26-24-6.6-1.7-10.9-2-25-1.9-9.4.1-18.1.4-19.3.6zm40.9 9.7c6.2 2.3 13.2 8.6 15.3 13.8.9 2.3 1.7 6.9 1.7 10.3.1 20.3-12.7 30.5-38.4 30.5h-9.8v-27.8c0-15.3.3-28.2.8-28.6 1.3-1.5 25.4 0 30.4 1.8zM156.1 1333.2c-.5 1.3-7.1 16.7-14.6 34.3-7.5 17.6-13.9 32.6-14.2 33.3-.4 1 1 1.2 6.3 1l6.8-.3 4.4-10.8 4.5-10.7H179.6l4.5 10.7 4.6 10.8 6.6.3c3.7.2 6.7-.1 6.7-.5s-6.6-16.4-14.7-35.5l-14.8-34.8h-7.8c-7.1 0-7.8.2-8.6 2.2zm16.7 29.8l4 9.5-12 .3c-6.7.1-12.2.1-12.4-.1-.2-.2 1.5-5.1 3.9-10.8 2.4-5.7 5.2-12.9 6.2-15.9l1.8-5.5 2.3 6.5c1.2 3.6 4 10.8 6.2 16zM217 1366.5v35.5h11l.2-28.1.3-28.1 4.4 6.4c2.4 3.4 12 16.1 21.5 28l17.1 21.8H284v-71h-11.1l.3 28c.2 15.3 0 27.6-.3 27.2-.3-.4-2.7-3.9-5.4-7.7-2.6-3.9-12-16.1-20.9-27.2l-16.1-20.3H217v35.5zM306 1356.8v25.9l3 6c5.2 10.3 13.2 14.3 28.9 14.3 16.2 0 25.1-4.1 30.7-14.2l2.9-5.3.3-26.3.3-26.2H360v20.2c0 23.1-.9 30.6-4.4 35.8-6.7 10.1-25.5 10.6-32.9.8-3.9-5.1-4.6-10.4-4.7-34.6V1331h-12v25.8zM473.1 1333.2c-.5 1.3-7.1 16.7-14.6 34.3-7.5 17.6-13.9 32.6-14.2 33.3-.4 1 1 1.2 6.3 1l6.8-.3 4.4-10.8 4.5-10.7H496.6l4.5 10.7 4.6 10.8 6.6.3c3.7.2 6.7-.1 6.7-.5s-6.6-16.4-14.7-35.5l-14.8-34.8h-7.8c-7.1 0-7.8.2-8.6 2.2zm16.7 29.8l4 9.5-12 .3c-6.7.1-12.2.1-12.4-.1-.2-.2 1.5-5.1 3.9-10.8 2.4-5.7 5.2-12.9 6.2-15.9l1.8-5.5 2.3 6.5c1.2 3.6 4 10.8 6.2 16zM679 1356.8v25.9l3 6c5.2 10.3 13.2 14.3 28.9 14.3 16.2 0 25.1-4.1 30.7-14.2l2.9-5.3.3-26.3.3-26.2H733v20.2c0 23.1-.9 30.6-4.4 35.8-6.7 10.1-25.5 10.6-32.9.8-3.9-5.1-4.6-10.4-4.7-34.6V1331h-12v25.8zM840 1366.5v35.5h12v-71h-12v35.5zM874 1366.5v35.5h11l.2-28.1.3-28.1 4.4 6.4c2.4 3.4 12 16.1 21.5 28l17.1 21.8H941v-71h-11.1l.3 28c.2 15.3 0 27.6-.3 27.2-.3-.4-2.7-3.9-5.4-7.7-2.6-3.9-12-16.1-20.9-27.2l-16.1-20.3H874v35.5zM1336 1356.8v25.9l3 6c5.2 10.3 13.2 14.3 28.9 14.3 16.2 0 25.1-4.1 30.7-14.2l2.9-5.3.3-26.3.3-26.2H1390v20.2c0 23.1-.9 30.6-4.4 35.8-6.7 10.1-25.5 10.6-32.9.8-3.9-5.1-4.6-10.4-4.7-34.6V1331h-12v25.8zM1558 1367v36h50v-9h-38v-63h-12v36zM1481.8 1388.7c-5.1.4-5.8.7-5.8 2.5 0 1.1-1.6 6.8-3.5 12.5-1.9 5.8-3.5 10.7-3.5 10.9 0 .3 2.1.4 4.8.2l4.7-.3 5.8-11.4c5.7-11.4 6.8-15.3 4.5-14.9-.7.1-3.9.3-7 .5z"/></svg>